<svg xmlns="http://www.w3.org/2000/svg" viewBox="0 0 800 600" width="800" height="600" fill="none" role="img" aria-hidden="true">
<defs>
<pattern id="dots" width="24" height="24" patternUnits="userSpaceOnUse"><circle cx="2" cy="2" r="1.3" fill="#0c2a1e" fill-opacity=".16"/></pattern>
<filter id="sh" x="-20%" y="-20%" width="140%" height="150%"><feDropShadow dx="0" dy="10" stdDeviation="14" flood-color="#0c2a1e" flood-opacity=".16"/></filter>
<linearGradient id="g1" x1="0" y1="0" x2="1" y2="1"><stop offset="0" stop-color="#14402e"/><stop offset="1" stop-color="#16a05f"/></linearGradient>
<linearGradient id="sk" x1="0" y1="0" x2="1" y2="0"><stop offset="0" stop-color="#0c2a1e" stop-opacity=".07"/><stop offset=".5" stop-color="#0c2a1e" stop-opacity=".16"/><stop offset="1" stop-color="#0c2a1e" stop-opacity=".07"/></linearGradient>
</defs>
<rect width="800" height="600" fill="#e9e6db"/>
<rect width="800" height="600" fill="url(#dots)"/>
<ellipse cx="690" cy="90" rx="190" ry="150" fill="#c6f26b" fill-opacity=".45"/>
<ellipse cx="90" cy="540" rx="210" ry="150" fill="#16a05f" fill-opacity=".22"/>
<rect x="70" y="110" width="660" height="76" rx="18" fill="#fff" stroke="#0c2a1e" stroke-opacity=".14" stroke-width="1.5" filter="url(#sh)"/><circle cx="115" cy="148" r="16" fill="#0c2a1e" fill-opacity="1"/><g transform="translate(115 149) scale(0.5)"><path d="M0 14 V-2 M0 6 C-12 6 -14 -6 -14 -12 C-6 -12 0 -6 0 4 M0 4 C0 -6 6 -12 14 -12 C14 -6 10 4 0 4" stroke="#c6f26b" stroke-width="3" stroke-linecap="round" stroke-linejoin="round"/></g><rect x="142" y="142" width="70" height="12" rx="6.0" fill="#0c2a1e" fill-opacity="0.7"/><rect x="260" y="142" width="62" height="10" rx="5.0" fill="#0c2a1e" fill-opacity="0.5"/><rect x="260" y="166" width="62" height="3" rx="1.5" fill="#16a05f" fill-opacity="1"/><rect x="345" y="142" width="62" height="10" rx="5.0" fill="#0c2a1e" fill-opacity="0.2"/><rect x="430" y="142" width="50" height="10" rx="5.0" fill="#0c2a1e" fill-opacity="0.2"/><rect x="520" y="130" width="140" height="38" rx="19" fill="#fff" fill-opacity="1" stroke="none" stroke-width="0"/><rect x="520" y="130" width="140" height="38" rx="19" fill="#0c2a1e" fill-opacity="0.1"/><circle cx="543" cy="149" r="7" fill="none" fill-opacity="1" stroke="#0c2a1e" stroke-width="2"/><rect x="558" y="145" width="60" height="8" rx="4.0" fill="#0c2a1e" fill-opacity="0.3"/><circle cx="690" cy="148" r="19" fill="#c6f26b" fill-opacity="1"/><circle cx="690" cy="143" r="6" fill="#16a05f" fill-opacity="1"/><path d="M677 160 a13 11 0 0 1 26 0" fill="#16a05f"/><rect x="150" y="230" width="230" height="170" rx="16" fill="#fff" stroke="#0c2a1e" stroke-opacity=".14" stroke-width="1.5" filter="url(#sh)"/><circle cx="180" cy="268" r="6" fill="#0c2a1e" fill-opacity="0.3"/><rect x="200" y="263" width="120" height="10" rx="5.0" fill="#0c2a1e" fill-opacity="0.4"/><circle cx="180" cy="308" r="6" fill="#16a05f"/><rect x="200" y="303" width="120" height="10" rx="5.0" fill="#0c2a1e" fill-opacity="0.4"/><circle cx="180" cy="348" r="6" fill="#0c2a1e" fill-opacity="0.3"/><rect x="200" y="343" width="120" height="10" rx="5.0" fill="#0c2a1e" fill-opacity="0.4"/><rect x="162" y="288" width="206" height="40" rx="10" fill="#c6f26b" fill-opacity="0.7"/><circle cx="180" cy="308" r="6" fill="#16a05f" fill-opacity="1"/><rect x="200" y="303" width="120" height="10" rx="5.0" fill="#0c2a1e" fill-opacity="0.6"/><rect x="470" y="250" width="190" height="250" rx="18" fill="#fff" stroke="#0c2a1e" stroke-opacity=".14" stroke-width="1.5" filter="url(#sh)"/><rect x="495" y="285" width="60" height="12" rx="6.0" fill="#0c2a1e" fill-opacity="0.7"/><path d="M620 282 h24" stroke="#0c2a1e" stroke-opacity=".6" stroke-width="3" stroke-linecap="round"/><path d="M620 290 h24" stroke="#0c2a1e" stroke-opacity=".6" stroke-width="3" stroke-linecap="round"/><path d="M620 298 h24" stroke="#0c2a1e" stroke-opacity=".6" stroke-width="3" stroke-linecap="round"/><rect x="495" y="335" width="130" height="9" rx="4.5" fill="#0c2a1e" fill-opacity="0.2"/><rect x="495" y="365" width="110" height="9" rx="4.5" fill="#0c2a1e" fill-opacity="0.2"/><rect x="495" y="395" width="90" height="9" rx="4.5" fill="#0c2a1e" fill-opacity="0.2"/><rect x="495" y="435" width="140" height="38" rx="10" fill="#0c2a1e" fill-opacity="1"/><rect x="540" y="451" width="50" height="7" rx="3.5" fill="#fff" fill-opacity="0.9"/>
</svg>